<svg xmlns="http://www.w3.org/2000/svg" version="1.1" xmlns:xlink="http://www.w3.org/1999/xlink" xmlns:svgjs="http://svgjs.dev/svgjs" width="1500" height="1500" viewBox="0 0 1500 1500"><rect width="1500" height="1500" fill="#3458cc"></rect><g transform="matrix(0.6666666666666666,0,0,0.6666666666666666,250,187.66666666666674)"><svg viewBox="0 0 320 360" data-background-color="#3458cc" preserveAspectRatio="xMidYMid meet" height="1687" width="1500" xmlns="http://www.w3.org/2000/svg" xmlns:xlink="http://www.w3.org/1999/xlink"><g id="tight-bounds" transform="matrix(1,0,0,1,0,0)"><svg viewBox="0 0 320 360" height="360" width="320"><g><svg></svg></g><g><svg viewBox="0 0 320 360" height="360" width="320"><g><path d="M219.58 41.008c0.707 0 6.365 2.829 9.547 3.89-1.061 0.354-3.536-0.707-6.365-1.768 0.707 0 2.122 0.354 3.536 1.06-0.707-0.707-6.011-2.475-6.718-3.182M166.895 30.047c1.061-0.354 13.436 1.414 19.094 1.768 0.354-0.354-0.707-0.354-2.122-0.707 1.768-0.354 5.304 0.707 7.779 1.06-7.425 0.354-15.558-1.768-22.629-1.06-2.475 0-0.707-0.707-2.122-1.061M156.641 30.047c6.365 0 11.315 0 2.121 0.707-1.061-0.354-2.475-0.354-2.121-0.707M256.707 59.395c0.707 0 3.536 3.182 4.95 4.243-0.354 0.354-3.182-2.475-4.596-3.536 0.354 0.354 0 0-0.354-0.707M249.635 54.798c-2.829-2.475-3.889-2.475-4.243-3.889 2.475 1.414 4.243 2.829 4.243 3.889M204.022 32.522c0.354-0.354 1.061 0.354 2.829 0.707-2.122-0.354-1.768 0-1.061 0.707-2.475-0.354-3.182-0.707-2.475-1.414 1.414 0.707 1.768 0.354 0.707 0M103.602 36.765c0-0.354 1.414-1.061 2.475-1.414-1.061 0.707-0.707 1.061 1.061 0.353 0 0.354-2.122 1.061-3.536 1.768 0.707-0.354 1.414-1.414 0-0.707M211.094 28.986c-1.061 0.354-4.95-1.768-8.84-2.475-2.122-0.707 8.486 1.768 8.84 2.475M2.475 203.66c2.122 8.84 0.707 8.486 0 0M2.829 150.621c0.354-1.414 0.707-5.304 1.06-4.95-1.061 8.486-2.829 12.376-3.182 18.74 1.061-5.657-0.354 3.182-0.707 5.304 0.354 2.829 0.354-1.768 1.061-1.06 0.707 1.061-1.414 15.912-0.707 7.779-0.707 7.425 0 15.558 1.414 17.679-1.768 11.315 7.072 36.773 8.84 42.077 0.354 0.354 0-1.768 0.707-0.353 0.707 4.597 3.889 7.779 4.95 12.729 1.061 1.414 5.304 9.193 6.011 10.962 1.414 2.829 2.122 2.475 3.536 5.303 4.243 8.133 10.961 15.912 17.326 23.337 20.508 24.044 51.978 43.845 86.984 50.918 35.006 7.425 71.779 2.122 100.419-11.669 1.768-1.061 1.414-1.414 3.536-2.122 9.901-3.182 21.923-13.436 28.641-17.326 3.182-3.536 11.669-9.547 12.73-13.082 6.011-4.95 12.022-13.083 15.204-18.387 1.768-2.829 3.182-2.829 3.889-4.597-0.354 0 5.657-7.425 7.426-11.668-0.707 0-1.768 2.122-1.768 0 12.729-24.398 19.801-57.282 15.911-79.912 0.707 27.934-6.365 59.05-19.801 78.851-6.011 12.729-18.387 26.519-29.701 36.42-1.768 1.768-3.536 3.889-5.658 5.304-6.718 5.657-14.144 10.254-21.922 14.497-18.387 10.254-38.895 19.094-62.94 19.447 41.37-3.536 78.497-24.398 99.006-49.856-15.558 15.204-22.276 21.215-39.602 30.055-1.414 2.475-13.083 7.425-20.862 9.547 4.597-2.122 14.144-5.657 17.326-8.486-25.812 12.376-54.453 19.448-81.326 15.558 10.254 0 24.751 0.354 38.541-2.121 2.122-0.707 3.182-1.414 5.658-1.768 26.873-6.011 52.685-19.094 71.072-37.481-10.608 9.547-26.519 20.862-36.774 24.398 9.547-5.304 26.873-15.558 32.53-23.337-11.315 11.315-32.53 22.63-45.966 27.58-2.122 0.354 1.414-1.414-2.122 0-4.243 1.061-2.475 1.061-3.536 1.768-16.265 4.597-35.006 8.486-50.563 7.072-2.829-0.354-3.889-1.061-6.365-1.061-2.829-0.354-5.304-0.354-8.486-0.354-12.376-1.414-25.812-6.365-35.713-10.607-5.304-2.475-10.608-4.243-15.912-7.426-4.243-2.475-7.779-5.304-11.314-8.132-13.436-9.901-24.751-19.801-35.36-33.945-19.094-26.519-28.994-59.757-27.58-92.641 1.414-32.884 14.497-65.061 35.359-88.752-1.061 1.061 1.414-2.475 3.536-4.596 0 0.707-0.354 1.768 2.122-0.707 2.122-2.475-0.707-0.707 0.353-2.122 21.923-24.044 60.111-43.492 99.36-44.199 1.414-1.061 3.889-2.475 6.718-1.768 0 0.354-1.768 0.354-1.768 0.354 3.889-0.354 7.425-0.354 9.193 0.353 0.354-0.354-1.414-0.707 0-0.707 2.475 0.707 3.182 0 4.597 0.707-1.061 0-2.122 0-2.829 0.354 8.84 0 14.497 2.122 23.337 2.829-4.597-1.061-5.657-1.061-9.193-2.122 3.889 0.707 5.657 1.414 7.425 1.061-0.707 0-0.354-1.061 0.354-0.707 7.072 1.768 7.779 2.475 15.204 4.95 0.707-0.707-3.182-1.061-4.243-2.122 7.072 2.475 13.436 4.243 17.68 7.072-1.414-1.061-5.657-2.475-8.84-3.889-0.354 0.354 1.061 0.707 1.414 1.414-3.536-1.768-8.486-3.536-13.436-4.243 4.243 1.061 7.072 2.475 8.84 3.182-3.889-0.707-8.84-3.182-14.498-4.243 9.193 2.829 26.519 9.193 37.127 14.851-3.889-2.475-8.486-4.243-10.961-5.657 2.122 0.354 4.597 1.768 4.597 1.06 2.475 1.061 5.657 3.536 7.425 3.89-3.182-2.122-9.547-5.304-11.668-6.365 26.519 12.022 50.21 32.177 65.414 57.989 1.414 2.475 3.536 8.133 5.304 8.84-0.354-1.768-1.768-2.829-3.182-5.657 0.707 0 0.707-1.061 0-2.122-1.414-1.768 0 1.414-1.415-0.354-6.365-11.669-14.144-21.923-26.165-33.237 6.718 6.365 1.768 1.768 0.353-0.354 9.193 8.133 19.801 21.923 24.398 28.995-0.707-1.061-1.061-1.768-0.707-1.768 8.486 14.497 13.79 27.58 19.094 46.32 0.354 0.354 0-1.414 0.707-0.353 3.536 14.851 4.597 27.227 4.243 38.541 2.829-19.094-3.536-48.796-14.851-72.133-1.414-2.829-1.414-0.707-2.829-3.889 0-1.061-1.061-3.182-1.768-4.597-14.144-23.337-31.47-39.956-51.978-53.038 1.414 0.707 4.243 2.829 4.244 2.475-38.188-25.105-82.387-28.641-118.807-20.862-2.475 1.061-3.536 2.122-6.365 3.536 5.304-1.768 8.486-2.122 13.437-3.183 1.061-1.061-4.597 0.354-2.122-0.707 0.354 0.354 4.95-0.707 6.011-0.353 0 0.354-1.414 0.707-1.768 1.06 11.669-2.475 23.691-2.829 33.945-2.121-6.011 0.354-16.972-0.707-20.508 1.061 3.536-0.354 8.486-0.707 11.668-0.354-4.243 0-12.022 0.354-15.558 0.707-0.354-0.354 5.657-1.061 1.768-1.06-1.768 0.354-4.597 0.354-5.657 1.414-30.409 2.829-60.111 18.74-80.973 37.481-4.243 3.536-9.193 7.425-12.375 11.314-7.779 8.84-12.729 17.68-18.387 25.459 3.536-7.425 11.315-18.74 20.508-28.287 9.193-9.547 19.094-17.68 24.398-21.923 0 1.414 8.486-5.304 11.669-7.425-2.122 1.768 1.414-0.707 2.121-0.354 11.315-6.718 20.508-9.193 30.763-13.083-2.475 0.707-4.597 1.414-4.951 1.061 2.475-0.707 3.889-1.414 3.536-1.768-9.901 2.829-25.459 9.547-37.834 16.972 22.276-15.204 50.564-24.398 78.497-24.751 27.934-0.707 55.16 6.365 76.729 17.68 14.497 6.365 28.287 18.033 39.249 29.348 3.182 2.829 0.707-0.707 5.304 4.243-1.414-0.707-2.475-1.414-0.707 0.707 2.829 3.182-0.707-2.475 3.889 3.182-0.354 0-1.768-1.768-1.768-1.061 12.376 10.961 21.923 30.762 27.58 43.846-1.414-5.304-4.95-12.729-7.779-18.033 8.486 15.558 11.315 24.751 14.851 38.541 1.414 1.061-0.707-4.95 0.707-2.121 0.354 2.122 0.707 8.84 2.122 9.9-1.061-6.718-2.829-14.851-4.243-16.265 1.061 0.707-1.768-8.133-3.536-10.254-0.707-5.657-5.657-15.558-9.901-22.984-15.204-29.702-42.431-54.099-72.839-67.536 0-0.707-1.768-1.414-2.476-2.121-30.055-12.729-66.122-16.265-100.773-8.133-35.006 8.486-67.889 28.641-91.227 57.636 1.061-3.536 9.901-10.254 10.255-13.083-10.254 10.961-21.215 25.459-28.641 41.016-7.779 15.558-12.022 31.47-13.79 43.138" fill="#fff6f0" fill-rule="nonzero" stroke="none" stroke-width="1" stroke-linecap="butt" stroke-linejoin="miter" stroke-miterlimit="10" stroke-dasharray="" stroke-dashoffset="0" font-family="none" font-weight="none" font-size="none" text-anchor="none" style="mix-blend-mode: normal" data-fill-palette-color="tertiary"></path></g><g transform="matrix(1,0,0,1,48,142.0027535121328)"><svg viewBox="0 0 224 75.99449297573435" height="75.99449297573435" width="224"><g><svg viewBox="0 0 224 75.99449297573435" height="75.99449297573435" width="224"><g><svg viewBox="0 0 224 75.99449297573435" height="75.99449297573435" width="224"><g id="textblocktransform"><svg viewBox="0 0 224 75.99449297573435" height="75.99449297573435" width="224" id="textblock"><g><svg viewBox="0 0 224 75.99449297573435" height="75.99449297573435" width="224"><path d="M223.476 16.299C222.422 8.411 219.421 6.218 219.421 6.218 210.207-1.907 198.707-0.155 188.377 1.012 170.137 1.059 151.972 2.795 133.775 3.726 95.58 3.868 57.059 1.533 19.053 7.291 15.483 9.058-3.704 7.638 0.635 17.309 1.772 21.332 5.921 25.797 5.795 29.488 6.364 30.135 7.154 28.652 7.49 29.583 8.67 32.092 10.597 30.908 12.177 32.391 9.976 36.351 11.555 39.648 13.061 43.103 10.408 44.003 7.006 43.577 5.479 46.559 5.321 48.72 4.468 48.31 3.531 48.215 2.846 48.152 1.467 48.389 1.699 49.067 2.488 51.386-0.902 52.727 1.225 54.999-0.239 57.46 2.236 59.59 1.899 62.256 1.857 62.792 2.088 63.25 2.457 63.376 4.089 64.055 1.709 65.38 1.962 66.815 18.706 76.628 36.871 69.844 54.026 74.357 58.48 71.201 55.131 75.477 56.911 74.814 58.301 74.041 59.312 77.244 60.881 75.429 61.123 74.909 60.755 73.678 61.618 73.915 62.071 74.041 62.471 74.009 62.535 73.284 62.629 72.195 61.797 72.874 61.576 72.306 63.967 69.434 63.377 76.265 65.62 75.981 65.515 75.145 64.862 73.946 66.199 74.104 67.526 72.905 67.568 71.911 68.748 74.609 68.79 75.193 69 75.603 69.337 75.887 73.023 72.952 76.688 76.928 80.553 75.603 82.922 74.151 85.197 76.392 87.598 75.84 88.44 75.398 89.293 74.609 90.104 75.934 100.034 76.218 110.618 75.035 120.032 75.981 145.19 74.215 172.075 76.707 198.602 74.372 204.857 73.473 211.355 72.195 217.452 71.17 217.452 71.17 222.391 68.361 222.391 55.74S223.444 44.697 223.602 34.647C223.76 24.598 224.497 24.188 223.444 16.299Z" opacity="1" fill="#fff6f0" data-fill-palette-color="tertiary"></path><g transform="matrix(1,0,0,1,31.584000000000003,19.1)"><svg width="160.832" viewBox="1.85 -35.5 195.73000000000002 46" height="37.79449297573435" data-palette-color="#3458cc"><path d="M4.7-8.9Q4.85-7.2 5.98-5.65 7.1-4.1 9.08-3.13 11.05-2.15 13.6-2.15L13.6-2.15Q17.45-2.15 20.03-3.88 22.6-5.6 22.6-9.35L22.6-9.35Q22.6-11.55 21.35-13.03 20.1-14.5 18.25-15.38 16.4-16.25 13.2-17.4L13.2-17.4Q9.75-18.6 7.68-19.63 5.6-20.65 4.17-22.4 2.75-24.15 2.75-26.9L2.75-26.9Q2.75-29.1 4-31.08 5.25-33.05 7.78-34.27 10.3-35.5 14-35.5L14-35.5Q16.45-35.5 18.05-35.15 19.65-34.8 21.3-34L21.3-34 20.45-31.35Q17.6-32.8 14.1-32.8L14.1-32.8Q10.25-32.8 7.95-31.2 5.65-29.6 5.65-26.75L5.65-26.75Q5.65-24.95 6.8-23.73 7.95-22.5 9.63-21.75 11.3-21 14.3-19.95L14.3-19.95Q17.95-18.7 20.2-17.63 22.45-16.55 24.03-14.58 25.6-12.6 25.6-9.6L25.6-9.6Q25.6-5 22.68-2.23 19.75 0.55 13.65 0.55L13.65 0.55Q9.95 0.55 7.33-0.83 4.7-2.2 3.33-4.38 1.95-6.55 1.85-8.9L1.85-8.9 4.7-8.9ZM46.95 0L46.95-17.15Q46.95-20.2 45.17-21.58 43.4-22.95 40.6-22.95L40.6-22.95Q38.9-22.95 37.15-22.48 35.4-22 34.05-21.25L34.05-21.25 34.05 0 31.25 0 31.25-25.05 34.05-25.05 33.85-23.35Q35.05-24.4 36.9-24.93 38.75-25.45 40.75-25.45L40.75-25.45Q43.5-25.45 45.45-24.55L45.45-24.55Q47.45-23.65 48.57-21.85 49.7-20.05 49.7-17.3L49.7-17.3 49.7 0 46.95 0ZM74.15 0Q68.75 0.55 66.34 0.55L66.34 0.55Q61.09 0.55 58-1.4 54.9-3.35 54.9-8.45L54.9-8.45 54.9-12.6Q54.9-17.55 58.34-19.25L58.34-19.25Q60-20.1 62.55-20.1L62.55-20.1Q64.9-20.1 67.3-19.33 69.7-18.55 71.34-17.3L71.34-17.3Q71.34-20.05 69.75-21.68 68.15-23.3 63.59-23.3L63.59-23.3 63.75-25.45Q68.55-25.45 70.82-23.93 73.09-22.4 73.62-20.3 74.15-18.2 74.15-14.9L74.15-14.9 74.15 0ZM71.34-15.15Q69.3-16.1 66.97-16.8 64.65-17.5 62.7-17.5L62.7-17.5Q57.65-17.5 57.65-12.45L57.65-12.45 57.65-8.1Q57.65-4.85 59.9-3.38 62.15-1.9 66.3-1.9L66.3-1.9Q68.45-1.9 71.34-2.3L71.34-2.3 71.34-15.15ZM77.44 10.5L77.44-25.05 80.24-25.05 79.99-22.5Q81.34-23.95 83.17-24.7 84.99-25.45 86.79-25.45L86.79-25.45Q91.44-25.45 93.87-22.75 96.29-20.05 96.29-15.75L96.29-15.75 96.29-8.8Q96.29-4.25 93.74-1.83 91.19 0.6 86.99 0.6L86.99 0.6Q84.84 0.6 83.19 0 81.54-0.6 80.24-2.1L80.24-2.1 80.24 9.4 77.44 10.5ZM93.49-15.95Q93.49-19.6 91.57-21.25 89.64-22.9 86.99-22.9L86.99-22.9Q84.29-22.9 82.34-21.28 80.39-19.65 80.24-16.2L80.24-16.2 80.24-8.3Q80.24-5.05 82.09-3.5 83.94-1.95 86.99-1.95L86.99-1.95Q89.74-1.95 91.62-3.58 93.49-5.2 93.49-8.3L93.49-8.3 93.49-15.95ZM102.64-8.9Q102.79-7.2 103.92-5.65 105.04-4.1 107.02-3.13 108.99-2.15 111.54-2.15L111.54-2.15Q115.39-2.15 117.97-3.88 120.54-5.6 120.54-9.35L120.54-9.35Q120.54-11.55 119.29-13.03 118.04-14.5 116.19-15.38 114.34-16.25 111.14-17.4L111.14-17.4Q107.69-18.6 105.62-19.63 103.54-20.65 102.12-22.4 100.69-24.15 100.69-26.9L100.69-26.9Q100.69-29.1 101.94-31.08 103.19-33.05 105.72-34.27 108.24-35.5 111.94-35.5L111.94-35.5Q114.39-35.5 115.99-35.15 117.59-34.8 119.24-34L119.24-34 118.39-31.35Q115.54-32.8 112.04-32.8L112.04-32.8Q108.19-32.8 105.89-31.2 103.59-29.6 103.59-26.75L103.59-26.75Q103.59-24.95 104.74-23.73 105.89-22.5 107.57-21.75 109.24-21 112.24-19.95L112.24-19.95Q115.89-18.7 118.14-17.63 120.39-16.55 121.97-14.58 123.54-12.6 123.54-9.6L123.54-9.6Q123.54-5 120.62-2.23 117.69 0.55 111.59 0.55L111.59 0.55Q107.89 0.55 105.27-0.83 102.64-2.2 101.27-4.38 99.89-6.55 99.79-8.9L99.79-8.9 102.64-8.9ZM144.89 0L144.89-17.15Q144.89-20.2 143.11-21.58 141.34-22.95 138.54-22.95L138.54-22.95Q136.84-22.95 135.09-22.48 133.34-22 131.99-21.25L131.99-21.25 131.99 0 129.19 0 129.19-35 131.99-35 131.99-23.7Q133.24-24.55 134.99-25.03 136.74-25.5 138.64-25.5L138.64-25.5Q141.24-25.5 143.39-24.55L143.39-24.55Q145.39-23.65 146.51-21.85 147.64-20.05 147.64-17.3L147.64-17.3 147.64 0 144.89 0ZM173.19-9.2Q173.19-5 170.89-2.25 168.59 0.5 163.94 0.5L163.94 0.5Q159.29 0.5 156.91-2.27 154.54-5.05 154.54-9.2L154.54-9.2 154.54-15.8Q154.54-20.55 156.96-23.08 159.39-25.6 163.94-25.6L163.94-25.6Q168.29-25.6 170.74-22.98 173.19-20.35 173.19-15.8L173.19-15.8 173.19-9.2ZM170.39-15.8Q170.39-19.55 168.66-21.3 166.94-23.05 163.94-23.05L163.94-23.05Q160.84-23.05 159.09-21.3 157.34-19.55 157.34-15.8L157.34-15.8 157.34-8.7Q157.34-5.7 159.11-3.85 160.89-2 163.94-2L163.94-2Q167.04-2 168.71-3.83 170.39-5.65 170.39-8.7L170.39-8.7 170.39-15.8ZM178.73 10.5L178.73-25.05 181.53-25.05 181.28-22.5Q182.63-23.95 184.46-24.7 186.28-25.45 188.08-25.45L188.08-25.45Q192.73-25.45 195.16-22.75 197.58-20.05 197.58-15.75L197.58-15.75 197.58-8.8Q197.58-4.25 195.03-1.83 192.48 0.6 188.28 0.6L188.28 0.6Q186.13 0.6 184.48 0 182.83-0.6 181.53-2.1L181.53-2.1 181.53 9.4 178.73 10.5ZM194.78-15.95Q194.78-19.6 192.86-21.25 190.93-22.9 188.28-22.9L188.28-22.9Q185.58-22.9 183.63-21.28 181.68-19.65 181.53-16.2L181.53-16.2 181.53-8.3Q181.53-5.05 183.38-3.5 185.23-1.95 188.28-1.95L188.28-1.95Q191.03-1.95 192.91-3.58 194.78-5.2 194.78-8.3L194.78-8.3 194.78-15.95Z" opacity="1" transform="matrix(1,0,0,1,0,0)" fill="#3458cc" class="wordmark-text-0" data-fill-palette-color="quaternary" id="text-0"></path></svg></g></svg></g></svg></g></svg></g><g></g></svg></g></svg></g></svg></g><defs></defs></svg><rect width="320" height="360" fill="none" stroke="none" visibility="hidden"></rect></g></svg></g></svg>